<mxfile host="Electron" agent="Mozilla/5.0 (Windows NT 10.0; Win64; x64) AppleWebKit/537.36 (KHTML, like Gecko) draw.io/24.7.8 Chrome/128.0.6613.36 Electron/32.0.1 Safari/537.36" version="24.7.8">
  <diagram name="BitVM Architecture" id="BExgr3NZ9Vkn8xsz8dZv">
    <mxGraphModel dx="940" dy="702" grid="1" gridSize="10" guides="1" tooltips="1" connect="1" arrows="1" fold="1" page="1" pageScale="1" pageWidth="850" pageHeight="1100" math="0" shadow="0">
      <root>
        <mxCell id="0" />
        <mxCell id="1" parent="0" />
        <mxCell id="Yx7-cju96-ILEHhzNRzg-2" value="Stateful Scripts" style="rounded=1;whiteSpace=wrap;html=1;fontSize=14;fillColor=#d5e8d4;strokeColor=#82b366;" vertex="1" parent="1">
          <mxGeometry x="190" y="590" width="140" height="60" as="geometry" />
        </mxCell>
        <mxCell id="Yx7-cju96-ILEHhzNRzg-3" value="Emulated Covenants" style="rounded=1;whiteSpace=wrap;html=1;fontSize=14;fillColor=#d5e8d4;strokeColor=#82b366;" vertex="1" parent="1">
          <mxGeometry x="350" y="590" width="140" height="60" as="geometry" />
        </mxCell>
        <mxCell id="Yx7-cju96-ILEHhzNRzg-4" value="Connector Outputs" style="rounded=1;whiteSpace=wrap;html=1;fontSize=14;fillColor=#d5e8d4;strokeColor=#82b366;" vertex="1" parent="1">
          <mxGeometry x="510" y="590" width="140" height="60" as="geometry" />
        </mxCell>
        <mxCell id="Yx7-cju96-ILEHhzNRzg-13" value="Cross-chain Bridge" style="rounded=1;whiteSpace=wrap;html=1;fontSize=14;fillColor=#f5f5f5;strokeColor=#666666;fontColor=#333333;" vertex="1" parent="1">
          <mxGeometry x="190" y="410" width="460" height="60" as="geometry" />
        </mxCell>
        <mxCell id="Yx7-cju96-ILEHhzNRzg-26" value="BitVM" style="rounded=1;whiteSpace=wrap;html=1;fontSize=14;fillColor=#dae8fc;strokeColor=#6c8ebf;" vertex="1" parent="1">
          <mxGeometry x="190" y="500" width="460" height="60" as="geometry" />
        </mxCell>
      </root>
    </mxGraphModel>
  </diagram>
</mxfile>
